<?xml version="1.0" encoding="UTF-8"?>
<svg version="1.1" xmlns="http://www.w3.org/2000/svg" width="32" height="32">
<path d="M0 0 C1.32 0 2.64 0 4 0 C4 0.66 4 1.32 4 2 C6.64 1.67 9.28 1.34 12 1 C11.67 2.32 11.34 3.64 11 5 C9.02 5.33 7.04 5.66 5 6 C4.01 9.63 3.02 13.26 2 17 C0.68 17 -0.64 17 -2 17 C-1.67 14.36 -1.34 11.72 -1 9 C-3.14033909 7.73007156 -3.14033909 7.73007156 -6.4375 8.125 C-10 8 -10 8 -11.9375 6.5 C-12.288125 6.005 -12.63875 5.51 -13 5 C-13.66 5.66 -14.32 6.32 -15 7 C-15.99 7 -16.98 7 -18 7 C-17.67 5.02 -17.34 3.04 -17 1 C-14.6568787 1.25561323 -12.32156597 1.59270772 -10 2 C-9.67 2.66 -9.34 3.32 -9 4 C-6.69 4 -4.38 4 -2 4 C-1.34 2.68 -0.68 1.36 0 0 Z " fill="#DC7283" transform="translate(19,9)"/>
</svg>
